PathFileType	4	(X/Y/Z)	/Users/itak/Documents/Research/Walk-IL/dataset/trc/00534_00009.trc
DataRate	CameraRate	NumFrames	NumMarkers	Units	OrigDataRate	OrigDataStartFrame	OrigNumFrames
100.000000	100.000000	4	54	mm	100.000000	390	624
Frame#	Time	RPSI			LPSI			L3			STRN			T10			C7			CLAV			RBAK			LBAK			LSHO			LUPA			LAEL			LAOL			LWTS			LWPS			LFRA			LHPS			LHTS			RSHO			RUPA			RAEL			RAOL			RWTS			RWPS			RFRA			RIFD			RHTS			RHPS			RBHD			LFHD			RFHD			LBHD			LHIP			RASI			LASI			LKNE			LTHI			LANK			LTIP			LTOE			LMT1			LMT5			LHEE			RKNE			RTHI			RANK			RTIP			RTOE			RMT1			RMT5			RHEE			RHIP			LIFD			*53			
		X1	Y1	Z1	X2	Y2	Z2	X3	Y3	Z3	X4	Y4	Z4	X5	Y5	Z5	X6	Y6	Z6	X7	Y7	Z7	X8	Y8	Z8	X9	Y9	Z9	X10	Y10	Z10	X11	Y11	Z11	X12	Y12	Z12	X13	Y13	Z13	X14	Y14	Z14	X15	Y15	Z15	X16	Y16	Z16	X17	Y17	Z17	X18	Y18	Z18	X19	Y19	Z19	X20	Y20	Z20	X21	Y21	Z21	X22	Y22	Z22	X23	Y23	Z23	X24	Y24	Z24	X25	Y25	Z25	X26	Y26	Z26	X27	Y27	Z27	X28	Y28	Z28	X29	Y29	Z29	X30	Y30	Z30	X31	Y31	Z31	X32	Y32	Z32	X33	Y33	Z33	X34	Y34	Z34	X35	Y35	Z35	X36	Y36	Z36	X37	Y37	Z37	X38	Y38	Z38	X39	Y39	Z39	X40	Y40	Z40	X41	Y41	Z41	X42	Y42	Z42	X43	Y43	Z43	X44	Y44	Z44	X45	Y45	Z45	X46	Y46	Z46	X47	Y47	Z47	X48	Y48	Z48	X49	Y49	Z49	X50	Y50	Z50	X51	Y51	Z51	X52	Y52	Z52	X53	Y53	Z53	X54	Y54	Z54	

391	3.9	42.86244583129883	977.3040771484375	54.78352355957031	80.82264709472656	988.9627075195312	-72.23007965087891	64.40682220458984	1079.042358398438	-15.26318264007568	288.6958312988281	1267.043334960938	50.20108413696289	58.64106369018555	1203.709106445312	-24.46614265441895	102.4535217285156	1478.068725585938	-1.091327548027039	271.5094604492188	1379.279907226562	46.61902236938477	5.395924091339111	1354.182006835938	56.92044830322266	99.80850982666016	1425.115844726562	-99.23805999755859	219.3069000244141	1451.307495117188	-142.2143707275391	249.3533172607422	1328.271362304688	-220.2560272216797	317.7060546875	1115.29345703125	-223.8662567138672	220.4808807373047	1085.257080078125	-216.7504425048828	440.1271362304688	919.46337890625	-98.94731903076172	444.9119873046875	881.78271484375	-177.9731140136719	363.1839599609375	1040.816772460938	-206.8466186523438	465.1129150390625	827.9100952148438	-155.2876892089844	485.8122863769531	852.1083984375	-95.61335754394531	107.2681045532227	1442.429565429688	164.1803283691406	65.12747192382812	1378.595825195312	220.2917633056641	34.47377014160156	1091.10546875	260.9772644042969	-4.092250347137451	1073.51123046875	214.8647155761719	169.7576751708984	867.9833374023438	279.0997314453125	102.5802154541016	848.7896728515625	322.3147888183594	40.153076171875	1034.782470703125	272.1250610351562	178.2604827880859	693.6934814453125	296.0208740234375	188.951904296875	776.6217041015625	306.0859375	119.4274215698242	775.4568481445312	330.0897216796875	148.2049713134766	1654.67822265625	79.35116577148438	341.7177734375	1685.022338867188	8.945602416992188	273.9094543457031	1683.969604492188	136.8487548828125	233.1522979736328	1655.083862304688	-62.78806686401367	232.9231872558594	915.4207153320312	-170.9402160644531	233.4854888916016	944.9017944335938	165.1759185791016	300.0874633789062	937.6831665039062	-101.8241424560547	161.7553863525391	475.2929382324219	-113.7101058959961	207.2809448242188	637.499267578125	-141.6423797607422	-57.34465408325195	46.04124450683594	-149.2095642089844	29.34458160400391	254.6262664794922	-147.8456420898438	116.8668594360352	36.60958480834961	-16.78866577148438	37.75272750854492	47.06186676025391	-15.10636425018311	59.06879043579102	34.24017715454102	-120.4212417602539	-138.9503173828125	67.19564056396484	-124.8024826049805	327.0224609375	504.1357727050781	206.2057952880859	212.6983184814453	771.2437744140625	223.6931915283203	413.8209838867188	34.80596923828125	201.16796875	380.5906677246094	368.9813842773438	206.2380676269531	615.8590087890625	109.0302734375	228.3240356445312	574.04638671875	87.86350250244141	169.2565307617188	525.6719360351562	67.68234252929688	259.0880432128906	380.3375854492188	20.95282363891602	130.6384887695312	139.4081268310547	909.2794189453125	200.8949432373047	489.836669921875	758.1171264648438	-73.72254180908203	nan	nan	nan	
392	3.91	50.87894439697266	977.60009765625	58.78228378295898	88.88139343261719	988.931640625	-68.35177612304688	72.4107666015625	1078.537841796875	-11.47056865692139	296.2494812011719	1267.087280273438	53.65285491943359	66.37831115722656	1203.15087890625	-20.79386138916016	109.2446823120117	1477.650268554688	2.357543706893921	278.6539306640625	1379.301635742188	49.96896362304688	12.65133666992188	1353.453491210938	60.52245712280273	106.6602401733398	1424.609497070312	-95.745361328125	226.0883941650391	1451.000854492188	-138.9059906005859	256.1088256835938	1327.756958007812	-216.8612213134766	324.047607421875	1114.56005859375	-220.2242431640625	226.7606658935547	1084.89892578125	-212.8414001464844	445.6586608886719	917.5586547851562	-96.28716278076172	450.0273742675781	880.203125	-175.4960021972656	369.1695861816406	1039.827270507812	-203.5771179199219	470.0210266113281	826.1101684570312	-153.1487579345703	490.9342956542969	849.9074096679688	-93.35427856445312	114.1269607543945	1441.978759765625	167.5392456054688	72.31100463867188	1378.1171875	223.8300476074219	42.07744216918945	1090.546142578125	264.4039611816406	3.267703294754028	1073.145751953125	218.1787261962891	176.0744323730469	866.6748657226562	282.5238037109375	108.7667007446289	847.9188232421875	325.7359924316406	47.43003463745117	1034.246948242188	275.5394897460938	183.3350372314453	692.3442993164062	299.3943786621094	194.6353454589844	775.1592407226562	309.4953308105469	125.1036834716797	774.462158203125	333.4664306640625	154.774658203125	1654.572387695312	82.62889862060547	348.1800842285156	1685.058471679688	12.1666202545166	280.4768981933594	1684.013427734375	140.1125183105469	239.6869506835938	1655.007934570312	-59.52199172973633	240.5267028808594	914.8668823242188	-167.2346038818359	241.6487274169922	944.8631591796875	168.7523651123047	308.4580993652344	937.4925537109375	-97.57187652587891	167.1472625732422	475.0916748046875	-111.3001327514648	213.6969299316406	637.1481323242188	-138.7762603759766	-56.67990112304688	47.91232299804688	-149.3274993896484	32.34541702270508	255.9797210693359	-146.703369140625	117.0101013183594	36.56673049926758	-16.7423152923584	38.18817901611328	47.49726104736328	-15.18516540527344	59.23144912719727	34.27133941650391	-120.3670196533203	-137.9952392578125	70.3154296875	-124.9921035766602	334.2847290039062	503.6849975585938	208.3327178955078	221.119873046875	771.3590698242188	227.4459381103516	415.4958801269531	34.88224029541016	201.2505645751953	387.1527709960938	368.1106262207031	207.5283050537109	620.205810546875	102.1376266479492	227.3877410888672	577.4539794921875	82.46212005615234	168.5031127929688	529.1077880859375	63.40494155883789	258.4795227050781	381.2421569824219	22.27126121520996	130.7890625	147.9037017822266	909.5838623046875	204.9295349121094	494.5776062011719	755.8101806640625	-71.92878723144531	nan	nan	nan	
393	3.92	58.92954635620117	978.1173095703125	62.67263793945312	97.06864929199219	989.0169677734375	-64.55126953125	80.47428131103516	1078.241088867188	-7.760870933532715	303.8565673828125	1267.3046875	57.14728927612305	74.18363189697266	1202.81103515625	-17.16863822937012	116.0936279296875	1477.40771484375	5.848104000091553	285.8408203125	1379.4970703125	53.36709976196289	19.95684242248535	1352.901245117188	64.16114807128906	113.5860137939453	1424.285034179688	-92.21784973144531	232.9500885009766	1450.89599609375	-135.5499725341797	262.9237670898438	1327.449340820312	-213.4198608398438	330.3722839355469	1114.023803710938	-216.5361022949219	233.0050659179688	1084.781982421875	-208.8406829833984	451.1343383789062	915.7276611328125	-93.76285552978516	455.0059204101562	878.7374877929688	-173.1636047363281	375.1093139648438	1039.006225585938	-200.3344421386719	474.7830810546875	824.4138793945312	-151.2010192871094	495.9859313964844	847.7801513671875	-91.30680847167969	121.0647506713867	1441.707641601562	170.9610595703125	79.56359100341797	1377.805786132812	227.4087066650391	49.87776565551758	1090.130859375	267.8756408691406	10.86717700958252	1072.915405273438	221.5517120361328	182.5414886474609	865.5353393554688	285.9877014160156	115.1296539306641	847.2391967773438	329.2268676757812	54.88162994384766	1033.886108398438	279.012939453125	188.4993896484375	691.15771484375	302.7852172851562	200.4660186767578	773.8592529296875	312.9227294921875	130.9196472167969	773.6578979492188	336.9237976074219	161.3858184814453	1654.64111328125	85.95484924316406	354.6833190917969	1685.283569335938	15.40459728240967	287.0711059570312	1684.235229492188	143.4058837890625	246.2424621582031	1655.105834960938	-56.21649551391602	248.3643035888672	914.3681640625	-163.4450836181641	249.7739868164062	945.1477661132812	172.4089965820312	316.8002319335938	937.26904296875	-93.36586761474609	172.8252258300781	474.9514770507812	-108.6843566894531	220.4064636230469	636.8574829101562	-135.6849517822266	-55.88308334350586	50.02223587036133	-149.4714813232422	35.55942916870117	257.4801635742188	-145.4454803466797	117.1805801391602	36.52138137817383	-16.68901824951172	38.69227981567383	48.00729370117188	-15.25872135162354	59.44303512573242	34.33090591430664	-120.2882385253906	-136.8797302246094	73.74342346191406	-125.185905456543	341.6849365234375	503.6300354003906	210.695556640625	229.5072479248047	771.81689453125	231.3417510986328	417.1177978515625	35.15090179443359	201.5215759277344	393.8132019042969	367.5960693359375	209.06494140625	624.398193359375	95.36191558837891	226.6867218017578	580.6790161132812	77.29825592041016	168.0267181396484	532.3760375976562	59.38979339599609	258.1319885253906	382.2101135253906	23.77449989318848	131.0942993164062	156.2278137207031	910.1910400390625	208.9498901367188	499.2114562988281	753.5567626953125	-70.39488983154297	nan	nan	nan	
394	3.93	67.0079345703125	978.8258666992188	66.42167663574219	105.3690185546875	989.2113037109375	-60.8471565246582	88.61332702636719	1078.14990234375	-4.154919624328613	311.5001831054688	1267.695068359375	60.6815071105957	82.03057861328125	1202.692260742188	-13.61605167388916	123.0047607421875	1477.346557617188	9.37275505065918	293.0667114257812	1379.86572265625	56.81052780151367	27.30215644836426	1352.535400390625	67.82791137695312	120.5915908813477	1424.153198242188	-88.66564178466797	239.8992919921875	1451.001708984375	-132.1438598632812	269.8082275390625	1327.3701171875	-209.9362945556641	336.6616821289062	1113.700317382812	-212.82275390625	239.1843719482422	1084.928100585938	-204.75537109375	456.544677734375	913.9993286132812	-91.38063049316406	459.8331604003906	877.4053344726562	-170.9796600341797	380.9806213378906	1038.365234375	-197.1301727294922	479.3772583007812	822.8427734375	-149.4396057128906	500.9429931640625	845.7442626953125	-89.46849822998047	128.079345703125	1441.62841796875	174.4412231445312	86.87728881835938	1377.675903320312	231.0179595947266	57.84488296508789	1089.877685546875	271.3869323730469	18.62918281555176	1072.861938476562	224.9893493652344	189.1653594970703	864.5926513671875	289.4884033203125	121.6769332885742	846.773681640625	332.7875366210938	62.49330139160156	1033.7236328125	282.5379638671875	193.7687377929688	690.1575317382812	306.1852111816406	206.4509582519531	772.7451782226562	316.3552551269531	136.8923034667969	773.0737915039062	340.4526062011719	168.0359954833984	1654.877563476562	89.32974243164062	361.2284851074219	1685.695068359375	18.65950012207031	293.6928405761719	1684.633178710938	146.7295532226562	252.8102722167969	1655.367919921875	-52.8690071105957	256.4423522949219	913.9424438476562	-159.5781097412109	257.8383178710938	945.7484130859375	176.1625061035156	325.0748596191406	936.992431640625	-89.25335693359375	178.8606719970703	474.8711547851562	-105.8843765258789	227.4342956542969	636.6377563476562	-132.3708953857422	-54.92138671875	52.38568878173828	-149.6487731933594	39.03974914550781	259.1378479003906	-144.0879821777344	117.3749618530273	36.47324371337891	-16.63039588928223	39.2748908996582	48.60305023193359	-15.32687282562256	59.72798919677734	34.42921447753906	-120.1822967529297	-135.5628814697266	77.51369476318359	-125.3860015869141	349.2275085449219	503.9505004882812	213.3438262939453	237.8403472900391	772.6017456054688	235.3452301025391	418.6131896972656	35.47820281982422	201.9230499267578	400.4873352050781	367.3648376464844	210.8788604736328	628.261474609375	88.85577392578125	226.2046813964844	583.5816650390625	72.48426818847656	167.798828125	535.332275390625	55.6893424987793	258.0198364257812	383.1739501953125	25.31817436218262	131.5143890380859	164.3452606201172	911.0739135742188	212.9229736328125	503.7007751464844	751.3826904296875	-69.11080169677734	nan	nan	nan	
